<svg width="58" height="54" viewBox="0 0 58 54" fill="none" xmlns="http://www.w3.org/2000/svg">
<g clip-path="url(#clip0_4643_3088)">
<path d="M52.34 21.6352C51.5928 22.4171 50.8328 23.1926 50.0601 23.9617C39.7983 34.1488 27.0266 43.0452 12.0984 49.6494C8.52435 47.2326 5.59615 43.968 3.57208 40.1433C1.54801 36.3186 0.490288 32.0515 0.49219 27.7183C0.49219 27.4353 0.492192 27.1544 0.507107 26.8735C0.712273 20.4692 3.22169 14.3579 7.56873 9.67589C11.9158 4.9939 17.8046 2.05991 24.1401 1.41953C30.4756 0.779147 36.8266 2.47595 42.0121 6.19441C47.1976 9.91287 50.8647 15.3999 52.3315 21.6352H52.34Z" fill="#29B3FF"/>
<path d="M23.0391 12.6235C23.0381 15.0975 22.2333 17.5033 20.7472 19.4742C19.2611 21.445 17.1753 22.8728 14.8079 23.5398C12.4405 24.2068 9.92124 24.0765 7.63426 23.1687C5.34728 22.2608 3.41803 20.6254 2.14062 18.5115C3.46018 14.9493 5.52567 11.7144 8.19697 9.02624C10.8683 6.33807 14.0829 4.25953 17.6227 2.93164C19.2771 3.94253 20.6447 5.36545 21.5934 7.06309C22.5421 8.76074 23.0401 10.6758 23.0391 12.6235Z" fill="#FFCC24"/>
<path d="M50.0601 23.9611C39.7983 34.1482 27.0266 43.0446 12.0984 49.6488C8.52435 47.232 5.59615 43.9674 3.57208 40.1427C1.54801 36.3181 0.490288 32.0509 0.49219 27.7177C0.49219 27.4347 0.492192 27.1538 0.507107 26.8729H9.33272L11.8236 30.5717H8.40584V35.259H13.362V18.9629H18.9211V32.0426H21.8808V23.9589L50.0601 23.9611Z" fill="#008ECC"/>
<path d="M41.4953 49.6123C40.3543 50.3914 39.1538 51.0782 37.905 51.6665C35.7359 51.3792 33.5689 53.0795 31.4019 53.7421C30.8266 53.845 30.2471 53.9308 29.6611 53.993C28.8088 53.9501 27.9565 53.6199 27.1042 52.8158C24.6538 50.5129 22.2034 52.0953 19.7531 53.1932C18.9498 52.9788 18.1614 52.7107 17.3922 52.4148C16.236 51.9681 15.1124 51.44 14.0298 50.8345L14 50.8174L14.0298 50.8024C14.7287 50.4865 15.4219 50.1655 16.1095 49.8396C19.7744 50.5193 23.4414 45.2746 27.1042 48.7203C31.4616 52.8158 35.8211 44.6227 40.1785 48.7203C40.5611 49.0943 41.0071 49.3964 41.4953 49.6123Z" fill="#29B3FF"/>
<path d="M50.3659 39.3495C49.4826 41.1597 48.3967 42.8626 47.1293 44.4248C44.8068 45.497 42.4864 46.8071 40.166 44.6243C35.8086 40.5267 31.449 48.7219 27.0916 44.6243C26.9518 44.4906 26.8038 44.366 26.6484 44.2512C28.1286 43.3806 29.5875 42.4822 31.025 41.5559C34.072 40.8054 37.119 37.662 40.166 40.5267C43.5646 43.728 46.9653 39.4395 50.3659 39.3495Z" fill="#29B3FF"/>
<path d="M52.7072 31.9023C52.5143 33.1295 52.2345 34.3412 51.8698 35.5282C47.9662 33.9179 44.0648 40.1061 40.1634 36.4373C39.8954 36.1821 39.5995 35.9584 39.2812 35.7705C40.2756 35.0143 41.2572 34.2431 42.226 33.4569C45.7204 34.1323 49.2149 29.3807 52.7072 31.9023Z" fill="#29B3FF"/>
<path d="M53.0392 27.7182V28.0634C51.8119 27.017 50.5867 26.9119 49.3594 27.2057C50.5185 26.1064 51.6549 24.9864 52.7686 23.8457C52.9504 25.1284 53.0409 26.4225 53.0392 27.7182Z" fill="#29B3FF"/>
<path d="M18.285 17.4824H14.1875V18.3401H18.285V17.4824Z" fill="#008ECC"/>
<path d="M16.2401 11.2227C16.1163 11.2227 15.9976 11.2721 15.9101 11.3602C15.8226 11.4483 15.7734 11.5677 15.7734 11.6922V16.9649H16.7067V11.6922C16.7067 11.5677 16.6575 11.4483 16.57 11.3602C16.4825 11.2721 16.3638 11.2227 16.2401 11.2227Z" fill="#008ECC"/>
<path d="M37.7826 7.85232C41.9059 7.85758 46.026 7.62059 50.1219 7.14258C52.102 10.732 54.1653 14.285 56.3117 17.8015C42.9263 33.1498 24.1734 46.2317 1.125 54.0002C17.8408 40.7082 30.1651 24.6394 37.7826 7.85232Z" fill="#FFCC24"/>
<path d="M10.2656 48.5533C22.4941 37.2061 33.0136 22.3938 39.6573 8.14119C43.0346 8.10903 45.73 9.45774 49.1073 9.10395C50.6947 11.9515 53.3901 13.699 55.0734 16.4951C43.3542 29.6284 27.3394 41.293 10.2656 48.5533Z" fill="#FFB229"/>
<path d="M57.1854 16.3601C56.8935 16.8426 56.5994 17.3207 56.3011 17.7989C54.2385 15.6232 52.2498 13.4011 50.335 11.1325C50.3073 11.1775 50.2817 11.2204 50.2519 11.2655C48.95 13.4483 45.3895 16.8404 45.3511 16.8404C45.6906 17.6338 46.0316 18.425 46.3739 19.2141C45.979 19.7501 45.5798 20.2847 45.1764 20.8179C44.3625 20.066 43.5613 19.307 42.7729 18.5408C41.6493 18.2149 40.5363 17.8725 39.434 17.5137C39.8431 17.002 40.2451 16.4881 40.64 15.972C41.5932 15.9334 42.5485 15.8805 43.5059 15.8133C43.5229 15.8133 45.4065 11.5399 46.7276 9.41713C46.7532 9.37425 46.7809 9.33137 46.8086 9.29063C43.7289 8.93897 40.7146 8.45652 37.7656 7.84328C38.0725 7.41443 38.3757 6.98559 38.6755 6.55675C38.9845 6.16576 39.3876 5.86069 39.8467 5.67044C40.3057 5.48018 40.8054 5.41106 41.2984 5.46963C42.5662 5.6283 46.8917 5.58113 49.1567 5.40745C50.1155 3.74568 50.8805 2.28975 50.8826 2.28975C50.8847 2.28975 52.6703 -0.607087 54.149 0.0854952C54.4134 0.207605 54.622 0.425953 54.7329 0.696597C55.2507 1.88235 54.3984 3.99012 54.3813 3.99012C54.3643 3.99012 53.6228 5.4782 52.6767 7.17643C53.8081 9.03975 56.1136 12.5906 56.9382 13.5705C57.2533 13.9566 57.4454 14.4293 57.4895 14.9269C57.5336 15.4246 57.4276 15.924 57.1854 16.3601Z" fill="#008ECC"/>
<path opacity="0.1" d="M57.1859 16.3612C56.894 16.8436 56.5999 17.3218 56.3016 17.7999C54.2391 15.6243 52.2504 13.4021 50.3355 11.1336C50.3078 11.1786 50.2822 11.2215 50.2524 11.2665C48.9505 13.4493 45.39 16.8415 45.3517 16.8415C45.6912 17.6348 46.0321 18.4261 46.3744 19.2151C45.9795 19.7512 45.5804 20.2858 45.1769 20.819C44.363 20.0671 43.5618 19.308 42.7734 18.5418L54.1496 0.101562L54.7334 0.712664C55.2512 1.88341 54.3989 3.99117 54.3818 3.99117C54.3648 3.99117 53.6233 5.47926 52.6772 7.17748C53.8087 9.04081 56.1141 12.5916 56.9387 13.5715C57.2538 13.9576 57.4459 14.4304 57.49 14.928C57.5341 15.4256 57.4281 15.9251 57.1859 16.3612Z" fill="black"/>
<path d="M39.4219 7.11476C39.6062 6.86521 39.8449 6.66158 40.1198 6.51957C40.3946 6.37755 40.6982 6.30095 41.0072 6.29567L42.8119 6.24421C44.0137 6.21562 45.2161 6.19275 46.4193 6.17559L48.2198 6.14343C48.5181 6.14343 48.8207 6.12842 49.1104 6.10912H49.2212H49.3043C49.3596 6.09774 49.4132 6.07975 49.4642 6.05552C49.5656 6.00227 49.6521 5.92409 49.7156 5.82823L50.6041 4.2801C50.9024 3.75691 51.2156 3.24016 51.5225 2.72126V2.70839C51.661 2.52399 51.8101 2.33101 51.9635 2.15089C52.1165 1.9683 52.2787 1.79368 52.4493 1.62771C52.6208 1.46187 52.8062 1.31121 53.0033 1.17742C53.1017 1.10976 53.2058 1.05092 53.3144 1.00159C53.4227 0.950464 53.5401 0.922013 53.6596 0.917969C53.5447 0.938204 53.4356 0.983587 53.34 1.05091C53.2437 1.11606 53.1519 1.1877 53.0651 1.26533C52.9004 1.41775 52.7459 1.58108 52.6028 1.75421C52.4536 1.93218 52.3151 2.11659 52.1766 2.30528C52.0381 2.49397 51.9188 2.68481 51.7909 2.88636L51.8016 2.87135C51.5246 3.40955 51.2519 3.94346 50.9642 4.48381L50.5381 5.28574L50.325 5.68457L50.2163 5.88398L50.1609 5.98476C50.1396 6.0244 50.1154 6.06239 50.0885 6.0984C49.9784 6.25279 49.832 6.37729 49.6623 6.46077C49.5775 6.50198 49.4881 6.53293 49.396 6.55298C49.3491 6.56155 49.3022 6.56799 49.2553 6.57227H49.1403C48.8313 6.58943 48.5309 6.59372 48.2283 6.598C47.6253 6.598 47.0223 6.61516 46.4214 6.598C45.2168 6.598 44.0137 6.57585 42.8119 6.53153C42.2089 6.51009 41.608 6.49079 41.0072 6.46077C40.7114 6.44591 40.416 6.4968 40.142 6.60983C39.868 6.72287 39.6222 6.89526 39.4219 7.11476Z" fill="white"/>
</g>
<defs>
<clipPath id="clip0_4643_3088">
<rect width="57" height="54" fill="white" transform="translate(0.5)"/>
</clipPath>
</defs>
</svg>
