<svg width="10" height="10" viewBox="0 0 10 10" fill="none" xmlns="http://www.w3.org/2000/svg">
<g clip-path="url(#clip0_4585_4274)">
<path d="M4.3457 1.30762L4.7793 0.874023C4.96289 0.69043 5.25977 0.69043 5.44141 0.874023L9.23828 4.66895C9.42188 4.85254 9.42188 5.14941 9.23828 5.33105L5.44141 9.12793C5.25781 9.31152 4.96094 9.31152 4.7793 9.12793L4.3457 8.69434C4.16016 8.50879 4.16406 8.20605 4.35352 8.02441L6.70703 5.78223H1.09375C0.833984 5.78223 0.625 5.57324 0.625 5.31348V4.68848C0.625 4.42871 0.833984 4.21973 1.09375 4.21973H6.70703L4.35352 1.97754C4.16211 1.7959 4.1582 1.49316 4.3457 1.30762Z" fill="#272B2C"/>
</g>
<defs>
<clipPath id="clip0_4585_4274">
<rect width="10" height="10" fill="white"/>
</clipPath>
</defs>
</svg>
