<svg width="18" height="19" viewBox="0 0 18 19" fill="none" xmlns="http://www.w3.org/2000/svg">
<g clip-path="url(#clip0_3283_213)">
<path d="M8.29704 18.0744C7.96514 18.0408 7.63235 18.0144 7.30157 17.9722C6.28516 17.8425 5.28437 17.6427 4.38331 17.1281C4.09821 16.9653 3.82821 16.7474 3.60997 16.5024C3.19344 16.0348 3.20577 15.4496 3.59603 14.9592C3.92918 14.5406 4.3821 14.2913 4.86369 14.0869C5.51896 13.8089 6.20741 13.6521 6.94011 13.5344C6.88947 13.4648 6.8503 13.4092 6.80926 13.355C6.06548 12.3726 5.30259 11.4038 4.58338 10.4037C3.99313 9.583 3.57576 8.67622 3.3911 7.6678C2.8331 4.62088 4.83645 1.64974 7.87565 1.03735C8.10367 0.991396 8.33509 0.962502 8.56494 0.925659C8.84406 0.925659 9.12317 0.925659 9.40228 0.925659C9.7687 0.99278 10.1415 1.03587 10.5005 1.131C12.7761 1.73415 14.4648 3.7638 14.6698 6.10535C14.7962 7.54883 14.4027 8.85003 13.643 10.0612C12.9862 11.1083 12.1997 12.0589 11.4463 13.0343C11.3241 13.1926 11.2008 13.3501 11.0636 13.5264C11.3426 13.5819 11.6028 13.6281 11.8605 13.6859C12.4938 13.8281 13.1146 14.014 13.6702 14.3571C13.9186 14.5105 14.1596 14.6954 14.3558 14.91C14.8182 15.4156 14.8055 16.0386 14.3558 16.5585C14.0611 16.8993 13.6842 17.1244 13.2797 17.3078C12.4587 17.6799 11.5881 17.8628 10.6995 17.9723C10.3684 18.0131 10.0357 18.0406 9.70368 18.0743C9.23486 18.0744 8.76595 18.0744 8.29704 18.0744ZM8.99634 15.1459C9.03644 15.0972 9.06484 15.0649 9.09079 15.0308C9.75968 14.1518 10.434 13.2768 11.0954 12.3922C11.7597 11.5036 12.4444 10.6276 13.0596 9.70563C13.8368 8.54095 14.1761 7.25163 13.9627 5.83955C13.5055 2.81433 10.3501 0.872962 7.45113 1.84052C4.66492 2.77043 3.25632 5.7927 4.32825 8.54051C4.65604 9.38079 5.15839 10.118 5.69907 10.8293C6.69833 12.144 7.70845 13.4503 8.71339 14.7607C8.8073 14.8831 8.89622 15.0093 8.99634 15.1459ZM8.99737 17.4133C9.30716 17.3956 9.8318 17.3799 10.3535 17.3326C11.1725 17.2583 11.9759 17.0999 12.7466 16.8037C13.1281 16.6571 13.4976 16.4845 13.7919 16.1897C14.1021 15.8789 14.1082 15.5714 13.7863 15.2773C13.6114 15.1175 13.4107 14.9762 13.201 14.8657C12.415 14.4517 11.5571 14.2795 10.6864 14.1635C10.6293 14.1559 10.5415 14.2102 10.5026 14.2619C10.1099 14.7832 9.7235 15.3094 9.33721 15.8356C9.11102 16.1438 8.88827 16.1429 8.6627 15.8343C8.27752 15.3073 7.88775 14.7836 7.50454 14.2552C7.44354 14.1711 7.3803 14.1413 7.28013 14.1628C6.763 14.2738 6.23943 14.3602 5.72917 14.4966C5.19997 14.638 4.69105 14.8454 4.27287 15.2175C3.87233 15.574 3.86385 15.9205 4.28622 16.2525C4.54966 16.4597 4.85262 16.6336 5.16317 16.7606C6.32084 17.2342 7.54442 17.3666 8.99737 17.4133Z" fill="white"/>
<path d="M11.3451 6.61203C11.3477 7.90313 10.3003 8.95907 9.01218 8.96403C7.7146 8.96903 6.65549 7.91461 6.65625 6.61859C6.65701 5.3282 7.70687 4.27726 8.99717 4.27521C10.2868 4.2732 11.3425 5.32391 11.3451 6.61203ZM8.99999 8.29402C9.91878 8.29429 10.6736 7.54176 10.6749 6.62426C10.6762 5.704 9.92789 4.94959 9.00945 4.94521C8.08329 4.94084 7.32438 5.69748 7.32657 6.6231C7.32871 7.54248 8.08115 8.29376 8.99999 8.29402Z" fill="white"/>
<path d="M13.3541 6.46684C13.3541 6.53829 13.356 6.58862 13.3538 6.63873C13.3447 6.83974 13.203 6.98528 13.0186 6.98452C12.836 6.98376 12.7089 6.83558 12.6823 6.6369C12.63 6.24641 12.6101 5.84243 12.4907 5.47177C12.1345 4.36627 11.3878 3.60713 10.3091 3.17627C10.0965 3.09133 9.99741 2.96825 10.0171 2.80185C10.0447 2.5686 10.2635 2.447 10.5073 2.5369C11.2799 2.82168 11.9219 3.28898 12.4287 3.93742C13.0138 4.6862 13.3134 5.54064 13.3541 6.46684Z" fill="white"/>
<path d="M9.3651 2.60423C9.36251 2.78773 9.2012 2.94113 9.01815 2.93416C8.8384 2.92728 8.69621 2.77728 8.69826 2.59668C8.70041 2.40947 8.85653 2.25987 9.04244 2.26684C9.2196 2.27344 9.36755 2.42818 9.3651 2.60423Z" fill="white"/>
</g>
<defs>
<clipPath id="clip0_3283_213">
<rect width="18" height="18" fill="white" transform="translate(0 0.5)"/>
</clipPath>
</defs>
</svg>
