<svg width="57" height="54" viewBox="0 0 57 54" fill="none" xmlns="http://www.w3.org/2000/svg">
<g clip-path="url(#clip0_3283_145)">
<path d="M51.839 21.6352C51.0918 22.4171 50.3319 23.1926 49.5591 23.9616C39.2974 34.1488 26.5256 43.0452 11.5975 49.6494C8.02338 47.2326 5.09517 43.9679 3.0711 40.1433C1.04704 36.3186 -0.0106888 32.0515 -0.0087865 27.7183C-0.0087865 27.4353 -0.00878494 27.1544 0.00613039 26.8735C0.211296 20.4692 2.72072 14.3579 7.06776 9.67587C11.4148 4.99388 17.3036 2.0599 23.6391 1.41951C29.9746 0.779132 36.3256 2.47593 41.5111 6.19439C46.6966 9.91285 50.3637 15.3999 51.8305 21.6352H51.839Z" fill="#29B3FF"/>
<path d="M22.5372 12.623C22.5362 15.097 21.7313 17.5028 20.2452 19.4737C18.7591 21.4445 16.6734 22.8723 14.306 23.5393C11.9385 24.2063 9.41928 24.076 7.1323 23.1682C4.84533 22.2604 2.91607 20.6249 1.63867 18.511C2.95823 14.9488 5.02372 11.7139 7.69502 9.02575C10.3663 6.33758 13.5809 4.25904 17.1208 2.93115C18.7752 3.94204 20.1427 5.36496 21.0914 7.06261C22.0402 8.76025 22.5381 10.6753 22.5372 12.623Z" fill="#FFCC24"/>
<path d="M49.5591 23.9616C39.2974 34.1488 26.5256 43.0452 11.5975 49.6494C8.02338 47.2326 5.09517 43.9679 3.0711 40.1433C1.04704 36.3186 -0.0106888 32.0515 -0.0087865 27.7183C-0.0087865 27.4353 -0.00878494 27.1544 0.00613039 26.8735H8.83174L11.3226 30.5723H7.90486V35.2595H12.861V18.9635H18.4202V32.0432H21.3798V23.9595L49.5591 23.9616Z" fill="#008ECC"/>
<path d="M40.9934 49.6129C39.8524 50.3919 38.6518 51.0788 37.4031 51.6671C35.2339 51.3798 33.067 53.0801 30.9 53.7427C30.3247 53.8456 29.7451 53.9314 29.1591 53.9936C28.3068 53.9507 27.4545 53.6205 26.6022 52.8164C24.1519 50.5135 21.7015 52.0959 19.2511 53.1938C18.4478 52.9794 17.6594 52.7113 16.8902 52.4154C15.734 51.9687 14.6104 51.4406 13.5279 50.8351L13.498 50.818L13.5279 50.803C14.2268 50.4871 14.92 50.1661 15.6075 49.8402C19.2724 50.5199 22.9395 45.2752 26.6022 48.7209C30.9596 52.8164 35.3192 44.6233 39.6766 48.7209C40.0592 49.0949 40.5051 49.397 40.9934 49.6129Z" fill="#29B3FF"/>
<path d="M49.8659 39.3486C48.9826 41.1588 47.8967 42.8616 46.6293 44.4239C44.3068 45.496 41.9864 46.8062 39.666 44.6233C35.3086 40.5257 30.949 48.7209 26.5916 44.6233C26.4518 44.4897 26.3038 44.3651 26.1484 44.2502C27.6286 43.3797 29.0875 42.4813 30.525 41.555C33.572 40.8045 36.619 37.6611 39.666 40.5257C43.0646 43.7271 46.4653 39.4386 49.8659 39.3486Z" fill="#29B3FF"/>
<path d="M52.2101 31.9017C52.0172 33.1288 51.7374 34.3406 51.3727 35.5275C47.4692 33.9172 43.5677 40.1055 39.6663 36.4367C39.3983 36.1815 39.1024 35.9578 38.7842 35.7698C39.7785 35.0137 40.7601 34.2425 41.7289 33.4562C45.2233 34.1317 48.7178 29.3801 52.2101 31.9017Z" fill="#29B3FF"/>
<path d="M52.5363 27.7183V28.0635C51.309 27.0172 50.0838 26.9121 48.8564 27.2058C50.0156 26.1066 51.152 24.9866 52.2657 23.8459C52.4475 25.1285 52.5379 26.4227 52.5363 27.7183Z" fill="#29B3FF"/>
<path d="M17.7859 17.4818H13.6885V18.3395H17.7859V17.4818Z" fill="#008ECC"/>
<path d="M15.7381 11.2228C15.6144 11.2228 15.4957 11.2723 15.4082 11.3604C15.3206 11.4484 15.2715 11.5679 15.2715 11.6924V16.9651H16.2048V11.6924C16.2048 11.5679 16.1556 11.4484 16.0681 11.3604C15.9806 11.2723 15.8619 11.2228 15.7381 11.2228Z" fill="#008ECC"/>
<path d="M37.2797 7.85213C41.403 7.85739 45.5231 7.62041 49.6189 7.1424C51.5991 10.7318 53.6624 14.2848 55.8088 17.8013C42.4233 33.1496 23.6705 46.2315 0.62207 54C17.3379 40.708 29.6622 24.6392 37.2797 7.85213Z" fill="#FFCC24"/>
<path d="M9.76562 48.5537C21.9941 37.2065 32.5136 22.3942 39.1573 8.1416C42.5346 8.10944 45.23 9.45815 48.6073 9.10436C50.1947 11.9519 52.8901 13.6994 54.5734 16.4955C42.8542 29.6288 26.8394 41.2934 9.76562 48.5537Z" fill="#FFB229"/>
<path d="M56.6864 16.3604C56.3944 16.8428 56.1004 17.321 55.8021 17.7992C53.7395 15.6235 51.7508 13.4014 49.836 11.1328C49.8083 11.1778 49.7827 11.2207 49.7529 11.2657C48.451 13.4485 44.8905 16.8407 44.8521 16.8407C45.1916 17.6341 45.5325 18.4253 45.8749 19.2143C45.48 19.7504 45.0808 20.285 44.6774 20.8182C43.8634 20.0663 43.0623 19.3073 42.2739 18.5411C41.1503 18.2151 40.0373 17.8728 38.935 17.514C39.3441 17.0022 39.7461 16.4883 40.141 15.9723C41.0942 15.9337 42.0495 15.8808 43.0069 15.8136C43.0239 15.8136 44.9075 11.5402 46.2286 9.41741C46.2542 9.37452 46.2819 9.33164 46.3096 9.2909C43.2299 8.93925 40.2156 8.4568 37.2666 7.84355C37.5734 7.41471 37.8767 6.98587 38.1764 6.55702C38.4855 6.16604 38.8886 5.86096 39.3476 5.67071C39.8067 5.48046 40.3064 5.41134 40.7994 5.4699C42.0672 5.62857 46.3927 5.5814 48.6577 5.40772C49.6165 3.74595 50.3814 2.29003 50.3836 2.29003C50.3857 2.29003 52.1713 -0.606813 53.65 0.0857698C53.9144 0.20788 54.123 0.426228 54.2339 0.696872C54.7516 1.88262 53.8993 3.99039 53.8823 3.99039C53.8652 3.99039 53.1237 5.47848 52.1777 7.1767C53.3091 9.04003 55.6146 12.5909 56.4392 13.5708C56.7543 13.9569 56.9464 14.4296 56.9905 14.9272C57.0346 15.4248 56.9286 15.9243 56.6864 16.3604Z" fill="#008ECC"/>
<path opacity="0.1" d="M56.6869 16.3604C56.395 16.8428 56.1009 17.321 55.8026 17.7992C53.74 15.6235 51.7513 13.4014 49.8365 11.1328C49.8088 11.1778 49.7832 11.2207 49.7534 11.2657C48.4515 13.4485 44.891 16.8407 44.8526 16.8407C45.1921 17.6341 45.5331 18.4253 45.8754 19.2143C45.4805 19.7504 45.0813 20.285 44.6779 20.8182C43.864 20.0663 43.0628 19.3073 42.2744 18.5411L53.6505 0.100784L54.2344 0.711886C54.7522 1.88263 53.8999 3.9904 53.8828 3.9904C53.8658 3.9904 53.1243 5.47848 52.1782 7.17671C53.3096 9.04003 55.6151 12.5909 56.4397 13.5708C56.7548 13.9569 56.9469 14.4296 56.991 14.9272C57.0351 15.4248 56.9291 15.9243 56.6869 16.3604Z" fill="black"/>
<path d="M38.918 7.11452C39.1023 6.86497 39.341 6.66133 39.6159 6.51932C39.8907 6.37731 40.1943 6.30071 40.5033 6.29543L42.308 6.24396C43.5098 6.21538 44.7122 6.1925 45.9154 6.17535L47.7159 6.14319C48.0142 6.14319 48.3168 6.12818 48.6065 6.10888H48.7173H48.8004C48.8556 6.0975 48.9093 6.0795 48.9602 6.05527C49.0617 6.00202 49.1482 5.92384 49.2117 5.82799L50.1002 4.27986C50.3985 3.75667 50.7117 3.23991 51.0186 2.72101V2.70815C51.1571 2.52374 51.3062 2.33076 51.4596 2.15065C51.6126 1.96806 51.7748 1.79343 51.9454 1.62746C52.1169 1.46163 52.3023 1.31097 52.4994 1.17717C52.5978 1.10951 52.7019 1.05068 52.8105 1.00135C52.9188 0.95022 53.0362 0.921769 53.1557 0.917725C53.0408 0.93796 52.9317 0.983343 52.8361 1.05067C52.7398 1.11582 52.6479 1.18746 52.5612 1.26509C52.3965 1.41751 52.242 1.58083 52.0989 1.75397C51.9497 1.93194 51.8112 2.11634 51.6727 2.30503C51.5342 2.49373 51.4149 2.68456 51.287 2.88612L51.2977 2.87111C51.0207 3.40931 50.748 3.94322 50.4603 4.48356L50.0341 5.2855L49.8211 5.68432L49.7124 5.88374L49.657 5.98451C49.6357 6.02416 49.6115 6.06214 49.5846 6.09816C49.4745 6.25254 49.328 6.37705 49.1584 6.46053C49.0736 6.50174 48.9842 6.53269 48.8921 6.55273C48.8452 6.56131 48.7983 6.56774 48.7514 6.57203H48.6364C48.3274 6.58918 48.027 6.59347 47.7244 6.59776C47.1214 6.59776 46.5184 6.61491 45.9175 6.59776C44.7129 6.59776 43.5098 6.5756 42.308 6.53129C41.705 6.50985 41.1041 6.49055 40.5033 6.46053C40.2075 6.44566 39.9121 6.49656 39.6381 6.60959C39.3641 6.72262 39.1183 6.89502 38.918 7.11452Z" fill="white"/>
</g>
<defs>
<clipPath id="clip0_3283_145">
<rect width="57" height="54" fill="white"/>
</clipPath>
</defs>
</svg>
