<svg width="15" height="15" viewBox="0 0 15 15" fill="none" xmlns="http://www.w3.org/2000/svg">
<g clip-path="url(#clip0_3283_207)">
<path d="M6.93285 12.1178C7.24322 11.9377 7.62629 11.9377 7.93665 12.1178L10.6859 13.7131C11.4476 14.1551 12.3673 13.4681 12.1596 12.6124L11.4585 9.72273C11.3686 9.35211 11.4973 8.9626 11.7903 8.71853L14.0972 6.79716C14.7848 6.22446 14.4316 5.10612 13.5398 5.03219L10.4265 4.77407C10.0615 4.74381 9.74221 4.51643 9.59428 4.18138L8.34956 1.36208C7.99865 0.567266 6.87086 0.567267 6.51994 1.36208L5.27522 4.18138C5.1273 4.51643 4.80804 4.74381 4.44304 4.77407L1.32655 5.03244C0.435174 5.10634 0.08174 6.2238 0.768496 6.79684L3.07225 8.71912C3.36444 8.96293 3.49292 9.35144 3.4037 9.72138L2.70562 12.616C2.49933 13.4714 3.41862 14.157 4.17964 13.7154L6.93285 12.1178Z" fill="#EFA957"/>
</g>
<defs>
<clipPath id="clip0_3283_207">
<rect width="15" height="14" fill="white" transform="translate(0 0.5)"/>
</clipPath>
</defs>
</svg>
