<svg width="30" height="25" viewBox="0 0 30 25" fill="none" xmlns="http://www.w3.org/2000/svg">
<g clip-path="url(#clip0_3283_366)">
<path d="M16.1538 21.5909V9.09091C16.1538 7.85985 16.3972 6.68501 16.884 5.56641C17.3708 4.4478 18.0288 3.48011 18.8582 2.66335C19.6875 1.84659 20.6701 1.19851 21.8059 0.719105C22.9417 0.239702 24.1346 2.38419e-07 25.3846 2.38419e-07H26.5385C26.851 2.38419e-07 27.1214 0.112453 27.3498 0.337358C27.5781 0.562263 27.6923 0.828599 27.6923 1.13636V3.40909C27.6923 3.71686 27.5781 3.98319 27.3498 4.2081C27.1214 4.433 26.851 4.54545 26.5385 4.54545H25.3846C24.1106 4.54545 23.0228 4.98935 22.1214 5.87713C21.22 6.76491 20.7692 7.83617 20.7692 9.09091V9.65909C20.7692 10.1326 20.9375 10.535 21.274 10.8665C21.6106 11.1979 22.0192 11.3636 22.5 11.3636H26.5385C27.5 11.3636 28.3173 11.6951 28.9904 12.358C29.6635 13.0208 30 13.8258 30 14.7727V21.5909C30 22.5379 29.6635 23.3428 28.9904 24.0057C28.3173 24.6686 27.5 25 26.5385 25H19.6154C18.6538 25 17.8365 24.6686 17.1635 24.0057C16.4904 23.3428 16.1538 22.5379 16.1538 21.5909ZM2.38419e-07 21.5909V9.09091C2.38419e-07 7.85985 0.24339 6.68501 0.730169 5.56641C1.21695 4.4478 1.875 3.48011 2.70433 2.66335C3.53365 1.84659 4.51623 1.19851 5.65204 0.719105C6.78786 0.239702 7.98077 2.38419e-07 9.23077 2.38419e-07H10.3846C10.6971 2.38419e-07 10.9675 0.112453 11.1959 0.337358C11.4243 0.562263 11.5385 0.828599 11.5385 1.13636V3.40909C11.5385 3.71686 11.4243 3.98319 11.1959 4.2081C10.9675 4.433 10.6971 4.54545 10.3846 4.54545H9.23077C7.95673 4.54545 6.86899 4.98935 5.96755 5.87713C5.06611 6.76491 4.61538 7.83617 4.61538 9.09091V9.65909C4.61538 10.1326 4.78365 10.535 5.12019 10.8665C5.45673 11.1979 5.86538 11.3636 6.34615 11.3636H10.3846C11.3462 11.3636 12.1635 11.6951 12.8365 12.358C13.5096 13.0208 13.8462 13.8258 13.8462 14.7727V21.5909C13.8462 22.5379 13.5096 23.3428 12.8365 24.0057C12.1635 24.6686 11.3462 25 10.3846 25H3.46154C2.5 25 1.68269 24.6686 1.00962 24.0057C0.336539 23.3428 2.38419e-07 22.5379 2.38419e-07 21.5909Z" fill="#EFA957"/>
</g>
<defs>
<clipPath id="clip0_3283_366">
<rect width="30" height="25" fill="white" transform="matrix(-1 0 0 -1 30 25)"/>
</clipPath>
</defs>
</svg>
